<svg width="48" height="49" viewBox="0 0 48 49" fill="none" xmlns="http://www.w3.org/2000/svg">
<path d="M24 33.2387C24 33.2387 14.625 27.9887 14.625 21.6137C14.625 20.4867 15.0155 19.3946 15.73 18.523C16.4445 17.6515 17.4388 17.0544 18.5439 16.8334C19.649 16.6124 20.7966 16.7811 21.7913 17.3107C22.7861 17.8404 23.5665 18.6984 24 19.7387C24.4335 18.6984 25.2139 17.8404 26.2087 17.3107C27.2034 16.7811 28.351 16.6124 29.4561 16.8334C30.5612 17.0544 31.5555 17.6515 32.27 18.523C32.9845 19.3946 33.375 20.4867 33.375 21.6137C33.375 27.9887 24 33.2387 24 33.2387Z" stroke="#184EC9" stroke-width="1.5" stroke-linecap="round" stroke-linejoin="round"/>
</svg>
