<svg width="48" height="49" viewBox="0 0 48 49" fill="none" xmlns="http://www.w3.org/2000/svg">
<path d="M18 27.9887C19.6569 27.9887 21 26.6456 21 24.9887C21 23.3319 19.6569 21.9887 18 21.9887C16.3431 21.9887 15 23.3319 15 24.9887C15 26.6456 16.3431 27.9887 18 27.9887Z" stroke="#184EC9" stroke-width="1.5" stroke-linecap="round" stroke-linejoin="round"/>
<path d="M28.5 34.7387C30.1569 34.7387 31.5 33.3956 31.5 31.7387C31.5 30.0819 30.1569 28.7387 28.5 28.7387C26.8431 28.7387 25.5 30.0819 25.5 31.7387C25.5 33.3956 26.8431 34.7387 28.5 34.7387Z" stroke="#184EC9" stroke-width="1.5" stroke-linecap="round" stroke-linejoin="round"/>
<path d="M28.5 21.2387C30.1569 21.2387 31.5 19.8956 31.5 18.2387C31.5 16.5819 30.1569 15.2387 28.5 15.2387C26.8431 15.2387 25.5 16.5819 25.5 18.2387C25.5 19.8956 26.8431 21.2387 28.5 21.2387Z" stroke="#184EC9" stroke-width="1.5" stroke-linecap="round" stroke-linejoin="round"/>
<path d="M25.9781 19.8606L20.5219 23.3668" stroke="#184EC9" stroke-width="1.5" stroke-linecap="round" stroke-linejoin="round"/>
<path d="M20.5219 26.6106L25.9781 30.1168" stroke="#184EC9" stroke-width="1.5" stroke-linecap="round" stroke-linejoin="round"/>
</svg>
